<?xml version="1.0" encoding="UTF-8" standalone="no"?>
<svg width="200px" height="126px" viewBox="0 0 200 126" version="1.1" xmlns="http://www.w3.org/2000/svg" xmlns:xlink="http://www.w3.org/1999/xlink" xmlns:sketch="http://www.bohemiancoding.com/sketch/ns">
    <!-- Generator: Sketch 3.5.2 (25235) - http://www.bohemiancoding.com/sketch -->
    <title>Group</title>
    <desc>Created with Sketch.</desc>
    <defs>
        <path id="path-1" d="M6.5000001,57.4999987 C6.84151903,53.155834 4.49999998,50.4999987 3.50000003,41.9999987 C2.50000008,33.4999987 2,27.5 5,24 C8,21.5 34.5000007,20.5000001 38.5,17 C40.3181492,15.4415867 44.4695192,7.71950728 49.4999993,4.50000004 C54.5304794,1.28049281 60.8376196,0.0194711356 62.9999993,0.500000056 C65.5939024,1.44323761 68.6975828,6.6001326 72.4999993,9.50000029 C74.2722438,10.8515815 79,9.5 82.0000005,13.4999997 C94.2166103,28.770756 86.5954188,45.9677341 95.5000005,49.9999987 C103.752171,53.7368318 113.261057,60.7884916 125.500001,66.4999987 C148.000001,76.9999987 178.500001,81.9999987 185.000001,83.9999987 C191.500001,85.9999987 194.751291,87.3760792 195.499999,88.0000031 C198.499999,90.5000031 202,111 197.999999,113.500003 C179.577234,126.868735 140.000001,124.999997 130,125 C113.813818,125.000002 89.0203279,122.68384 64.5,120 C50,119 17.1164595,117.91154 1.5,114.999999 C-2.99999998,113.500006 4.98877019,76.7230369 6.5000001,57.4999987 Z"></path>
    </defs>
    <g id="Page-1" stroke="none" stroke-width="1" fill="none" fill-rule="evenodd" sketch:type="MSPage">
        <g id="Desktop-HD" sketch:type="MSArtboardGroup" transform="translate(-620.000000, -143.000000)">
            <g id="Group" sketch:type="MSLayerGroup" transform="translate(620.000000, 142.960938)">
                <mask id="mask-2" sketch:name="Mask" fill="white">
                    <use xlink:href="#path-1"></use>
                </mask>
                <use id="Mask" fill="#26A8DF" sketch:type="MSShapeGroup" xlink:href="#path-1"></use>
                <path d="M22.0000003,77.5 C24.1037775,83.0536724 40.8700644,98.1963492 44.7304843,100.5 C44.5,100.5 62,100.5 62.0000003,100.5 C66.5931765,89.3823309 46.7626498,77.037921 46.7626498,72 C46.7626498,69.7464811 48.2971914,64.6456477 55.9999992,58.5 C62.598684,53.2352714 75.2164678,47.2620976 78.4999992,41 C83.5952745,31.2826841 72.7837298,19.5 69.4999992,19.5 C61.6299415,19.5 35.5,48 22.0000003,61.5 C22,61.5 17.7111242,66.1779779 22.0000003,77.5 Z" id="Oval-31" opacity="0.504780784" fill="#1D7CC1" sketch:type="MSShapeGroup" mask="url(#mask-2)"></path>
                <path d="M103,111.5 C105.752009,115.203952 125.898212,107.440001 127.904499,107.440001 C128.329409,107.440001 155.308083,106.725969 160,104.5 C160.957048,104.045952 170.264185,104.821851 176.5,102 C177.155291,101.703466 186.076555,100.225795 191,97.5 C194.685601,95.4595197 197.5,91.7198124 196,89 C194.5,86.2801876 192.000002,86.5000004 189.5,85.5 C189.999998,88.4999996 183.499998,91.4999996 178.999999,91.690002 C174.499999,91.8800044 154.5,89.5 150,90.5 C145.000001,92.309998 144.929651,96.5318505 141.500001,97.4999996 C136.524024,98.9046579 134.482513,95.8589716 135.000001,94.9999996 C139.008383,88.3465251 141.500001,84.2618111 141.500001,78.5 C141.500001,69.8015152 121.95178,70 118.5,70 C115.04822,70 121.5,82.8099976 116.5,91.5 C114.406164,95.1390889 101.017228,108.831371 103,111.5 Z" id="Oval-32" opacity="0.5" fill="#1D7CC1" sketch:type="MSShapeGroup" mask="url(#mask-2)"></path>
                <path d="M38.9999998,16.1511218 C38.9999998,16.1511218 45.0038572,5.96343919 49.9999998,3.9999999 C52.7472159,2.92036861 56.7592134,0.933205164 60.9999998,0.401121751 C65.8066973,-0.201965447 69.9685005,9.82174118 73.4999998,9.99999995 C74.6734224,10.0592306 85.361769,32.3919147 86.4999998,37.9999984 C86.6175108,38.5789768 99.4050856,50.2965026 112,59.4999984 C117.691051,63.6586266 131.610729,68.2133711 136,71.0000022 C140.907655,74.1157423 135.96862,75.2605381 136,76.0000022 C136.041057,76.9674963 123.386721,71.473216 111,64.5000022 C98.882585,57.6783969 87.0333594,49.3777456 86.4999998,49.9999984 C83.8072062,53.141591 75.7079317,52.7897536 74.4999998,51.9999984 C72.900579,50.9542846 79.9999998,37.9999984 79.9999998,37.9999984 C79.9999998,37.9999984 74.435829,15.2566112 65.4999998,12.0000003 C56.5641707,8.74338946 38.9999998,16.1511218 38.9999998,16.1511218 Z" id="Rectangle-14" opacity="0.782241138" fill="#2AFFA6" sketch:type="MSShapeGroup" mask="url(#mask-2)"></path>
                <rect id="Rectangle-7" fill="#B8E986" sketch:type="MSShapeGroup" mask="url(#mask-2)" x="96.0822495" y="57.5125014" width="15.9899998" height="4.85500002" rx="15">
                    <g transform="translate(104.077249, 59.940001) rotate(-49.000000) translate(-104.077249, -59.940001) "></g>
                </rect>
                <rect id="Rectangle-7" fill="#B8E986" sketch:type="MSShapeGroup" mask="url(#mask-2)" x="83.0822495" y="50.5125014" width="20" height="4.85500002" rx="15">
                    <g transform="translate(93.082249, 52.940001) rotate(-49.000000) translate(-93.082249, -52.940001) "></g>
                </rect>
                <rect id="Rectangle-7" fill="#B8E986" sketch:type="MSShapeGroup" mask="url(#mask-2)" x="106.582249" y="63.5125014" width="15.9899998" height="4.85500002" rx="15">
                    <g transform="translate(114.577249, 65.940001) rotate(-49.000000) translate(-114.577249, -65.940001) "></g>
                </rect>
                <rect id="Rectangle-7" fill="#B8E986" sketch:type="MSShapeGroup" mask="url(#mask-2)" x="117.582249" y="68.5125014" width="15.9899998" height="4.85500002" rx="15">
                    <g transform="translate(125.577249, 70.940001) rotate(-49.000000) translate(-125.577249, -70.940001) "></g>
                </rect>
                <rect id="Rectangle-7" fill="#B8E986" sketch:type="MSShapeGroup" mask="url(#mask-2)" x="129.082249" y="73.5125014" width="15.9899998" height="4.85500002" rx="15">
                    <g transform="translate(137.077249, 75.940001) rotate(-49.000000) translate(-137.077249, -75.940001) "></g>
                </rect>
                <rect id="Rectangle-7" fill="#B8E986" sketch:type="MSShapeGroup" mask="url(#mask-2)" x="63.3625446" y="44.7389535" width="39.9899998" height="4.85500002" rx="15">
                    <g transform="translate(83.357545, 47.166453) rotate(-49.000000) translate(-83.357545, -47.166453) "></g>
                </rect>
                <rect id="Rectangle-7" fill="#B8E986" sketch:type="MSShapeGroup" mask="url(#mask-2)" x="68.0062883" y="38.3807422" width="31.9899998" height="4.85500002" rx="15">
                    <g transform="translate(84.001288, 40.808242) rotate(10.000000) translate(-84.001288, -40.808242) "></g>
                </rect>
                <path d="M1.52777699,92.9516294 C1.52777699,92.9516294 8.58180902,99.119074 48.5277786,101.467753 C69.3567899,102.692424 105.450842,106.3734 132.527779,105.967753 C159.604715,105.562106 176.254611,101.11723 182.027779,99.4677529 C196.027779,95.4677529 196.027779,87.9677529 196.027779,87.9677529 C196.027779,87.9677529 205.027779,111.467753 196.027779,115.467753 C184.240798,120.926986 168.220789,124.341901 148,125 C111.436171,126.189995 70.0277786,120.967753 70.0277786,120.967753 C70.0277786,120.967753 31.1855971,118.953936 1.52777697,115.467752 C-1.97222313,111.967752 1.52777699,92.9516294 1.52777699,92.9516294 Z" id="Rectangle-15" fill="#858585" sketch:type="MSShapeGroup" mask="url(#mask-2)"></path>
                <rect id="Rectangle-15" fill="#D8D8D8" sketch:type="MSShapeGroup" mask="url(#mask-2)" x="82.75" y="75.8155305" width="32.5" height="6">
                    <g transform="translate(99.000000, 78.815531) rotate(29.000000) translate(-99.000000, -78.815531) "></g>
                </rect>
                <rect id="Rectangle-7" fill="#B8E986" sketch:type="MSShapeGroup" mask="url(#mask-2)" x="96.0822495" y="57.5125014" width="15.9899998" height="4.85500002" rx="15">
                    <g transform="translate(104.077249, 59.940001) rotate(-49.000000) translate(-104.077249, -59.940001) "></g>
                </rect>
                <rect id="Rectangle-7" fill="#B8E986" sketch:type="MSShapeGroup" mask="url(#mask-2)" x="83.0822495" y="50.5125014" width="20" height="4.85500002" rx="15">
                    <g transform="translate(93.082249, 52.940001) rotate(-49.000000) translate(-93.082249, -52.940001) "></g>
                </rect>
                <rect id="Rectangle-7" fill="#B8E986" sketch:type="MSShapeGroup" mask="url(#mask-2)" x="106.582249" y="63.5125014" width="15.9899998" height="4.85500002" rx="15">
                    <g transform="translate(114.577249, 65.940001) rotate(-49.000000) translate(-114.577249, -65.940001) "></g>
                </rect>
                <rect id="Rectangle-7" fill="#B8E986" sketch:type="MSShapeGroup" mask="url(#mask-2)" x="117.582249" y="68.5125014" width="15.9899998" height="4.85500002" rx="15">
                    <g transform="translate(125.577249, 70.940001) rotate(-49.000000) translate(-125.577249, -70.940001) "></g>
                </rect>
                <rect id="Rectangle-7" fill="#B8E986" sketch:type="MSShapeGroup" mask="url(#mask-2)" x="129.082249" y="73.5125014" width="15.9899998" height="4.85500002" rx="15">
                    <g transform="translate(137.077249, 75.940001) rotate(-49.000000) translate(-137.077249, -75.940001) "></g>
                </rect>
                <path d="M8,48 C13.6609187,48 27,49.8847763 27,44.5 C27,39.1152237 21,30.5 23,25.5 C24,23 62.0162737,11.9525552 61.4999998,11.5 C60.8479341,10.9284126 56.536511,11.0816836 48.9999998,13 C43.7008212,14.3488339 35.9362143,17.2250188 30.4999998,18.5000002 C22.8187987,20.3015091 16.1720011,20.7817414 14.9999998,20.9999996 C11.8658094,21.5836701 4.5,23.3621051 4.5,25.5 C4.5,30.8847763 2.33908131,48 8,48 Z" id="Oval-30" opacity="0.5" fill="#1D7CC1" sketch:type="MSShapeGroup" mask="url(#mask-2)"></path>
            </g>
        </g>
    </g>
</svg>